<svg xmlns="http://www.w3.org/2000/svg" xmlns:xlink="http://www.w3.org/1999/xlink" width="40" zoomAndPan="magnify" viewBox="0 0 30 30.000001" height="40" preserveAspectRatio="xMidYMid meet" version="1.0"><defs><clipPath id="c811e7d589"><path d="M 1.210938 0.726562 L 28.789062 0.726562 L 28.789062 28.304688 L 1.210938 28.304688 Z M 1.210938 0.726562 " clip-rule="nonzero"/></clipPath></defs><g clip-path="url(#c811e7d589)"><path fill="#982a86" d="M 9.320312 0.726562 C 4.867188 0.726562 1.210938 4.378906 1.210938 8.835938 L 1.210938 20.195312 C 1.210938 24.648438 4.863281 28.304688 9.320312 28.304688 L 20.679688 28.304688 C 25.132812 28.304688 28.789062 24.652344 28.789062 20.195312 L 28.789062 8.835938 C 28.789062 4.382812 25.136719 0.726562 20.679688 0.726562 Z M 9.320312 3.234375 L 20.679688 3.234375 C 23.78125 3.234375 26.28125 5.734375 26.28125 8.835938 L 26.28125 20.195312 C 26.28125 23.296875 23.78125 25.800781 20.679688 25.800781 L 9.320312 25.800781 C 6.21875 25.800781 3.71875 23.296875 3.71875 20.195312 L 3.71875 8.835938 C 3.71875 5.734375 6.21875 3.234375 9.320312 3.234375 Z M 22.40625 5.976562 C 21.773438 5.976562 21.269531 6.480469 21.269531 7.113281 C 21.269531 7.742188 21.773438 8.246094 22.40625 8.246094 C 23.035156 8.246094 23.539062 7.742188 23.539062 7.113281 C 23.539062 6.480469 23.035156 5.976562 22.40625 5.976562 Z M 15 6.992188 C 10.863281 6.992188 7.476562 10.378906 7.476562 14.515625 C 7.476562 18.652344 10.863281 22.039062 15 22.039062 C 19.136719 22.039062 22.523438 18.652344 22.523438 14.515625 C 22.523438 10.378906 19.136719 6.992188 15 6.992188 Z M 15 9.5 C 17.785156 9.5 20.015625 11.730469 20.015625 14.515625 C 20.015625 17.300781 17.785156 19.53125 15 19.53125 C 12.214844 19.53125 9.984375 17.300781 9.984375 14.515625 C 9.984375 11.730469 12.214844 9.5 15 9.5 Z M 15 9.5 " fill-opacity="1" fill-rule="nonzero"/></g></svg>